<svg xmlns="http://www.w3.org/2000/svg" viewBox="0 0 162.47 162.54"><defs></defs><g id="Слой_2" data-name="Слой 2"><g id="Слой_1-2" data-name="Слой 1"><path class="cls-1" d="M91.09,81.24V93.1a14.72,14.72,0,0,1-19.7,0V81.24Z"/><path class="cls-1" d="M96.9,97a22.1,22.1,0,0,1-31.31,0L51.68,110.89a41.79,41.79,0,0,0,59.14,0Z"/><path class="cls-1" d="M162.47,81.24a81.23,81.23,0,0,1-81.23,81.23h0a81.26,81.26,0,0,1-80.57-71c-.16-1.3-.29-2.6-.39-3.91C.08,85.49,0,83.4,0,81.3v-.06H59.08v.06a21.92,21.92,0,0,0,2.41,9.85H20.7a61.68,61.68,0,0,0,22,38c.37.3.74.6,1.12.89s.81.63,1.23.92.82.6,1.24.89c.58.4,1.17.8,1.77,1.18.42.28.84.54,1.26.79a61.52,61.52,0,0,0,93.42-52.61Z"/><path class="cls-1" d="M81.2,162.47s0,.05,0,.07A81.2,81.2,0,0,1,.63,91.46,81.26,81.26,0,0,0,81.2,162.47Z"/><path class="cls-2" d="M162.47,81.24h-19.7a61.54,61.54,0,0,0-28.54-51.93l-.07,0c-.36-.18-.71-.38-1.06-.59h0A61.34,61.34,0,0,0,20.7,71.46H61.49a21.88,21.88,0,0,0-2.41,9.78H0c0-2.1.08-4.19.24-6.25.2-2.62.53-5.2,1-7.75q.33-1.9.75-3.78s0,0,0,0A81.24,81.24,0,0,1,162.47,81.24Z"/><path class="cls-2" d="M91.09,69.51V81.24H71.39V69.51a14.72,14.72,0,0,1,19.7,0Z"/><path class="cls-2" d="M110.82,51.74,96.9,65.65a22.16,22.16,0,0,0-31.31,0L51.68,51.72a41.79,41.79,0,0,1,59.14,0Z"/></g></g></svg>